<?xml version="1.0" ?><svg viewBox="0 0 64 64" xmlns="http://www.w3.org/2000/svg"><g id="Idea" fill="#1e2f4e"><path d="M39.9822,57.5708H23.946a1.75,1.75,0,0,0,0,3.5H39.9822a1.75,1.75,0,0,0,0-3.5Z"/><path d="M47.532,7.8438A23.3426,23.3426,0,1,0,19.0183,44.6592a7.1884,7.1884,0,0,1,3.2822,5.9433v1.9107a1.35,1.35,0,0,0,1.35,1.35h6.9942v-17.94h-2.709a5.9135,5.9135,0,0,1-1.35-11.6709V21.8989a1.35,1.35,0,1,1,2.6992,0v3.5474a1.35,1.35,0,0,1-1.35,1.35,3.2132,3.2132,0,1,0,0,6.4263h7.9053a3.2132,3.2132,0,1,0,0-6.4263,1.35,1.35,0,0,1-1.35-1.35V21.8989a1.35,1.35,0,1,1,2.6992,0V24.252a5.9135,5.9135,0,0,1-1.35,11.6709H33.3435v17.94h6.8223a1.35,1.35,0,0,0,1.35-1.35l.0009-1.9947a6.9074,6.9074,0,0,1,3.2168-5.747A23.3332,23.3332,0,0,0,47.532,7.8438Z"/></g></svg>