<?xml version="1.0" ?><svg enable-background="new 0 0 80 80" id="Layer_1" version="1.1" viewBox="0 0 80 80" xml:space="preserve" xmlns="http://www.w3.org/2000/svg" xmlns:xlink="http://www.w3.org/1999/xlink" width="25px" height="25px" fill="#1e2f4e"><g><path d="M43.658,50.959   c9.562-12.708,21.752-26.002,16.628-30.965c-5.192-5.288-23.938,1.975-35.168,12.259c-11.699,9.811-4.208,20.73-2.052,22.913   C25.517,57.586,34.654,63.89,43.658,50.959z" fill="none" stroke="#000000" stroke-linecap="round" stroke-miterlimit="10" stroke-width="4"/><path d="M49.667,27.613   C37.531,37.21,26.854,48.887,18.502,61.778" fill="none" stroke="#000000" stroke-linecap="round" stroke-miterlimit="10" stroke-width="4"/><path d="M38.805,29.606   c0.55,1.96,1.107,3.933,1.677,5.927c2.047,0.609,4.093,1.212,6.148,1.818" fill="none" stroke="#000000" stroke-linecap="round" stroke-miterlimit="10" stroke-width="4"/><path d="M30.996,34.611   c1.227,2.184,2.472,4.392,3.74,6.628c2.199,1.258,4.381,2.495,6.553,3.715" fill="none" stroke="#000000" stroke-linecap="round" stroke-miterlimit="10" stroke-width="4"/><path d="M25.725,42.159   c0.953,1.925,1.933,3.88,2.946,5.868c1.878,0.956,3.731,1.883,5.564,2.787" fill="none" stroke="#000000" stroke-linecap="round" stroke-miterlimit="10" stroke-width="4"/></g></svg>